<svg xmlns="http://www.w3.org/2000/svg" version="1.0" width="100.000000pt" height="100.000000pt" viewBox="0 0 100.000000 100.000000" preserveAspectRatio="xMidYMid meet">

<g transform="translate(0.000000,100.000000) scale(0.100000,-0.100000)" fill="#ffca2c" stroke="none">
<path d="M353 915 c-164 -46 -290 -180 -324 -343 -13 -67 -6 -165 16 -219 11 -26 14 -53 10 -88 -11 -91 52 -153 144 -140 31 4 58 1 82 -9 50 -21 136 -31 152 -18 9 8 27 4 67 -16 47 -23 68 -27 140 -27 73 0 93 4 141 28 114 56 199 181 202 300 l2 62 -65 3 -66 3 4 62 c2 39 -3 82 -14 117 -9 30 -17 84 -18 120 -2 107 -53 158 -145 145 -32 -4 -58 -1 -86 11 -55 23 -177 28 -242 9z m245 -46 c38 -16 50 -17 82 -8 73 22 135 -41 111 -114 -10 -28 -8 -41 8 -78 23 -53 35 -137 26 -179 l-7 -30 -269 0 -269 0 0 -49 c0 -91 41 -190 109 -264 l26 -28 -45 7 c-25 3 -65 15 -89 25 -36 16 -50 17 -81 8 -73 -22 -135 41 -111 114 10 28 8 41 -8 78 -94 215 58 488 299 539 62 12 166 3 218 -21z m362 -461 c0 -7 -6 -38 -14 -69 -36 -157 -158 -255 -311 -253 -82 1 -139 23 -202 78 -49 43 -98 138 -108 209 l-6 47 320 0 c250 0 321 -3 321 -12z" fill="#ffca2c"/>
<path d="M366 371 c-9 -14 12 -61 26 -61 7 1 42 16 78 35 l65 34 -82 1 c-45 0 -84 -4 -87 -9z" fill="#ffca2c"/>
<path d="M495 329 c-49 -26 -91 -53 -93 -58 -5 -14 47 -81 63 -81 12 0 131 178 124 184 -2 2 -44 -18 -94 -45z" fill="#ffca2c"/>
<path d="M698 349 c12 -19 39 -62 60 -96 21 -36 44 -63 53 -63 17 0 69 60 69 78 0 6 -46 34 -102 62 l-102 53 22 -34z" fill="#ffca2c"/>
<path d="M810 345 c35 -19 70 -35 77 -35 15 0 36 47 27 61 -3 5 -42 9 -87 9 l-82 0 65 -35z" fill="#ffca2c"/>
<path d="M556 267 c-65 -103 -65 -112 3 -135 68 -23 71 -18 71 113 0 63 -3 115 -7 115 -5 0 -34 -42 -67 -93z" fill="#ffca2c"/>
<path d="M650 248 c0 -73 4 -119 11 -123 13 -9 95 14 109 29 6 9 -7 39 -44 100 -30 48 -59 93 -65 99 -8 8 -11 -20 -11 -105z" fill="#ffca2c"/>
</g>
</svg>